<?xml version="1.0" standalone="no"?><!DOCTYPE svg PUBLIC "-//W3C//DTD SVG 1.1//EN" "http://www.w3.org/Graphics/SVG/1.1/DTD/svg11.dtd"><svg class="icon" height="512" viewBox="0 0 1024 1024" version="1.1" xmlns="http://www.w3.org/2000/svg"><path d="M482.816 49.152c78.848 0 142.336 50.688 142.336 112.64 0 62.464-64 112.64-142.336 112.64-7.68 0-15.36-0.512-23.04-1.536-21.504 22.016-54.272 32.768-91.136 35.328 15.36-15.36 26.112-37.376 29.696-55.808-34.816-20.48-57.856-53.248-57.856-90.624 0-61.952 63.488-112.64 142.336-112.64z" fill="" /><path d="M460.8 161.792a22.016 22.016 0 1 0 44.032 0 22.016 22.016 0 1 0-44.032 0zM527.872 161.792a22.016 22.016 0 1 0 44.032 0 22.016 22.016 0 1 0-44.032 0zM394.24 161.792a22.016 22.016 0 1 0 44.032 0 22.016 22.016 0 1 0-44.032 0z" fill="#FFFFFF" /><path d="M160.768 330.24a75.776 75.776 0 1 0 151.552 0 75.776 75.776 0 1 0-151.552 0zM431.104 924.16c0 17.92-14.336 32.256-32.256 32.256h-10.752c-17.92 0-32.256-14.336-32.256-32.256V773.12c0-11.776-9.728-21.504-21.504-21.504h-97.28c-35.84 0-65.024-29.184-65.024-65.024v-189.44c0-32.256 26.112-58.88 58.88-58.88h1.024c32.256 0 58.88 26.112 58.88 58.88V675.84h75.776c35.84 0 65.024 29.184 65.024 65.024l-0.512 183.296z" fill="" /><path d="M344.576 610.816c-6.144 0-10.752-4.608-10.752-10.752v-32.256c0-6.144 4.608-10.752 10.752-10.752h334.848c6.144 0 10.752 4.608 10.752 10.752v32.256c0 6.144-4.608 10.752-10.752 10.752H344.576z" fill="" /><path d="M851.968 686.592c0 35.84-29.184 65.024-65.024 65.024h-97.28c-11.776 0-21.504 9.728-21.504 21.504v145.92c0 20.48-16.896 37.376-37.376 37.376h-0.512c-20.48 0-37.376-16.896-37.376-37.376V740.352c0-35.84 29.184-65.024 65.024-65.024h75.776V496.64c0-32.256 26.112-58.88 58.88-58.88h1.024c32.256 0 58.88 26.112 58.88 58.88l-0.512 189.952zM711.68 330.24a75.776 75.776 0 1 0 151.552 0 75.776 75.776 0 1 0-151.552 0z" fill="" /></svg>